<?xml version="1.0" encoding="UTF-8"?>
<svg version="1.1" xmlns="http://www.w3.org/2000/svg" width="1447" height="521">
<path d="M0 0 C3.89432645 0.00771936 7.78863417 0.00051747 11.6829617 -0.0041585 C18.21774533 -0.00958164 24.7524265 -0.00251652 31.28719449 0.01186323 C38.78593614 0.0281762 46.28443279 0.02289709 53.78316849 0.00638402 C60.28064667 -0.00733827 66.77805215 -0.00909846 73.27554017 -0.00129998 C77.13020351 0.00331907 80.98475268 0.00416453 84.83940816 -0.00590944 C105.12151796 -0.05173497 124.64873743 0.75907378 144.35628629 6.09047651 C145.30858121 6.34538862 146.26087613 6.60030073 147.24202847 6.86293745 C168.54360865 12.78043583 188.91254241 22.47330008 206.85628629 35.40297651 C207.83726285 36.09907026 208.81823941 36.79516401 209.82894254 37.51235151 C217.32797207 42.96970978 224.16827136 48.99833465 230.85628629 55.40297651 C231.4107443 55.92488569 231.9652023 56.44679487 232.53646207 56.98451948 C245.78444313 69.4921392 256.90487043 83.50125972 265.85628629 99.40297651 C266.2438107 100.08521284 266.63133512 100.76744917 267.03060269 101.47035933 C293.47005326 148.40734727 299.26215054 203.00782261 285.18441129 254.87856245 C276.50527049 284.96540955 260.38496184 311.83090796 238.85628629 334.40297651 C237.66057587 335.79178303 236.47212833 337.18690358 235.29378629 338.59047651 C223.37488825 352.21207427 207.5561075 363.5259748 191.85628629 372.40297651 C191.23882535 372.75811323 190.62136441 373.11324995 189.98519254 373.47914839 C160.75866284 390.17588862 127.64779969 398.53154187 94.06063199 398.56410933 C92.19728208 398.57155668 92.19728208 398.57155668 90.29628873 398.57915449 C86.91319736 398.59118556 83.53016718 398.59870208 80.14706182 398.60316515 C78.02045762 398.60611763 75.89385855 398.6102265 73.76725698 398.61466932 C67.07649231 398.62832093 60.38573969 398.6379961 53.69496208 398.64187121 C46.04195564 398.64633101 38.38912966 398.66379136 30.73617798 398.69287181 C24.77642699 398.71470969 18.81672589 398.72458727 12.85693544 398.72591233 C9.3189162 398.72694577 5.78106699 398.73253104 2.24309087 398.75073195 C-55.50168864 399.03050815 -106.55341405 382.13542824 -148.69937778 341.78432417 C-149.9817299 340.55789613 -151.27669032 339.34468164 -152.57340121 338.13344526 C-187.39654965 304.73544347 -207.92986242 253.96669425 -209.36246371 206.16078901 C-210.01693783 171.70669305 -203.3883117 137.78975758 -187.11099887 107.24086714 C-185.39974241 103.98939348 -183.77814855 100.69359033 -182.14371371 97.40297651 C-181.48371371 97.40297651 -180.82371371 97.40297651 -180.14371371 97.40297651 C-179.06846177 94.75068839 -178.0491522 92.11929197 -177.14371371 89.40297651 C-176.48371371 89.40297651 -175.82371371 89.40297651 -175.14371371 89.40297651 C-175.14371371 88.41297651 -175.14371371 87.42297651 -175.14371371 86.40297651 C-174.48371371 86.40297651 -173.82371371 86.40297651 -173.14371371 86.40297651 C-172.64871371 84.42297651 -172.64871371 84.42297651 -172.14371371 82.40297651 C-171.48371371 82.40297651 -170.82371371 82.40297651 -170.14371371 82.40297651 C-169.64871371 80.42297651 -169.64871371 80.42297651 -169.14371371 78.40297651 C-168.48371371 78.40297651 -167.82371371 78.40297651 -167.14371371 78.40297651 C-166.64871371 76.42297651 -166.64871371 76.42297651 -166.14371371 74.40297651 C-165.48371371 74.40297651 -164.82371371 74.40297651 -164.14371371 74.40297651 C-163.91683871 73.68110151 -163.68996371 72.95922651 -163.45621371 72.21547651 C-161.86711749 68.81027033 -159.84750095 67.01600726 -157.14371371 64.40297651 C-156.16256927 63.42579162 -155.18345131 62.44656846 -154.20621371 61.46547651 C-148.08121371 55.34047651 -148.08121371 55.34047651 -146.59000278 53.85561323 C-145.19183589 52.45130989 -143.81575497 51.02512337 -142.44058871 49.59828901 C-140.05925511 47.32225248 -138.16344173 46.57731519 -135.14371371 45.40297651 C-134.81371371 44.41297651 -134.48371371 43.42297651 -134.14371371 42.40297651 C-132.08121371 41.71547651 -132.08121371 41.71547651 -130.14371371 41.40297651 C-130.14371371 40.74297651 -130.14371371 40.08297651 -130.14371371 39.40297651 C-128.82371371 39.07297651 -127.50371371 38.74297651 -126.14371371 38.40297651 C-126.14371371 37.74297651 -126.14371371 37.08297651 -126.14371371 36.40297651 C-118.23218804 30.01981375 -109.03586349 25.64317148 -99.92838168 21.26967573 C-97.62271474 20.1499606 -95.35445515 18.96187763 -93.08121371 17.77797651 C-82.77811322 12.70280839 -72.51193643 9.03804015 -61.39371371 6.21547651 C-60.46736117 5.97772505 -59.54100863 5.73997358 -58.58658481 5.49501753 C-55.45021121 4.73137177 -52.30384181 4.06198176 -49.14371371 3.40297651 C-47.93644122 3.14609556 -46.72916873 2.88921461 -45.48531222 2.62454939 C-30.43097351 -0.28727489 -15.26439646 -0.03985809 0 0 Z M-88.7638309 130.81606245 C-105.08190737 149.58242782 -113.58801132 173.96289141 -113.45621371 198.65297651 C-113.45129916 199.74980757 -113.44638461 200.84663862 -113.44132113 201.97670698 C-113.31910123 210.47193026 -112.48586652 218.20073857 -110.14371371 226.40297651 C-109.79179965 227.65078901 -109.43988559 228.89860151 -109.07730746 230.18422651 C-104.97042911 243.89295515 -98.12055404 255.34168344 -89.14371371 266.40297651 C-88.44504184 267.26793745 -87.74636996 268.13289839 -87.02652621 269.02407026 C-70.98779621 287.85342179 -47.45668693 299.09410527 -23.14371371 302.40297651 C-18.82659202 302.67109947 -14.52389155 302.68693084 -10.19937778 302.67763472 C-8.9539017 302.68274565 -7.70842563 302.68785658 -6.42520785 302.69312239 C-3.04058094 302.70456275 0.3437994 302.70710441 3.72842813 302.70455909 C6.57079062 302.70348077 9.41313114 302.70839474 12.25548887 302.71316451 C18.97172229 302.72421916 25.68789976 302.72472055 32.40413785 302.71865034 C39.29273629 302.71261923 46.18113003 302.72490886 53.06969357 302.74622041 C59.01915823 302.76393802 64.96855836 302.76982173 70.91804838 302.76658267 C74.45578344 302.76478512 77.9933726 302.76725027 81.53108335 302.78129721 C98.47017241 302.84286278 114.12577885 302.76167247 130.10628629 296.59047651 C130.76177457 296.33765913 131.41726285 296.08484175 132.09261441 295.82436323 C137.94534936 293.50300721 143.45159127 290.63205277 148.85628629 287.40297651 C148.85628629 286.74297651 148.85628629 286.08297651 148.85628629 285.40297651 C149.84628629 285.40297651 150.83628629 285.40297651 151.85628629 285.40297651 C151.85628629 284.74297651 151.85628629 284.08297651 151.85628629 283.40297651 C155.85628629 281.40297651 155.85628629 281.40297651 157.79378629 280.59047651 C162.83524235 277.68781999 166.45329116 272.63632379 170.20784879 268.27016401 C172.20743595 266.0052288 174.28636438 263.90957376 176.54378629 261.90297651 C178.18553859 260.35888022 178.18553859 260.35888022 177.85628629 257.40297651 C178.51628629 257.40297651 179.17628629 257.40297651 179.85628629 257.40297651 C179.85628629 256.41297651 179.85628629 255.42297651 179.85628629 254.40297651 C180.51628629 254.40297651 181.17628629 254.40297651 181.85628629 254.40297651 C182.29198941 253.53157026 182.72769254 252.66016401 183.17659879 251.76235151 C184.20473223 249.70608463 185.23958352 247.65313822 186.28597379 245.60610151 C198.45766812 220.7363693 200.85981502 191.75788051 191.95711637 165.41713667 C187.00164197 151.66582023 179.71407495 139.20862947 169.85628629 128.40297651 C168.81214566 127.23701948 168.81214566 127.23701948 167.74691129 126.04750776 C150.4777572 107.73842286 124.72139003 96.74408581 99.77305722 95.2138648 C96.66417997 95.13961471 93.56075901 95.12110026 90.45101285 95.12831831 C89.28648587 95.12320738 88.12195889 95.11809645 86.92214322 95.11283064 C83.1136787 95.09905369 79.3053976 95.09988262 75.49691129 95.10219526 C73.49877752 95.09928777 71.50064369 95.09637418 69.50251102 95.09278852 C63.23011832 95.08175054 56.95778553 95.08122297 50.68538785 95.08730268 C44.26370825 95.09333247 37.8422483 95.08104368 31.42060614 95.05973262 C25.86342243 95.04198405 20.30630779 95.03613605 14.74909687 95.03937036 C11.44941234 95.04116303 8.14991666 95.03739112 4.85025144 95.02465582 C-31.83153108 94.90044902 -63.25492282 102.88596988 -88.7638309 130.81606245 Z " fill="#E7C463" transform="translate(1128.1437137126923,53.597023487091064)"/>
<path d="M0 0 C1.72514925 -0.00107663 3.45029813 -0.00302093 5.17544556 -0.00575256 C9.79623712 -0.0105371 14.41692986 -0.00303108 19.03770947 0.00720048 C23.89118136 0.01606711 28.74465094 0.01422202 33.59812927 0.01383972 C41.72510408 0.0147712 49.85204114 0.02339305 57.97900391 0.03710938 C67.38152142 0.05291955 76.78399795 0.05810412 86.18652779 0.05737382 C96.2166066 0.0567 106.2466696 0.06362138 116.27674365 0.07282043 C119.16553542 0.07495388 122.05432465 0.07566183 124.94311714 0.07605934 C129.46338666 0.07705972 133.98362147 0.08313109 138.50387955 0.09322548 C140.16601919 0.09615753 141.82816282 0.09737443 143.49030495 0.09679794 C145.74862477 0.09631081 148.00684585 0.10192699 150.26515198 0.10920715 C151.53136163 0.110883 152.79757128 0.11255884 154.10215092 0.11428547 C156.90795898 0.24291992 156.90795898 0.24291992 157.90795898 1.24291992 C158.00324119 4.22590206 158.03348073 7.18568337 158.02148438 10.16894531 C158.0216304 11.10543411 158.02177643 12.04192291 158.02192688 13.00679016 C158.02122736 16.11807531 158.01343313 19.22930141 158.00561523 22.34057617 C158.00375119 24.49149035 158.00232723 26.64240495 158.00132751 28.7933197 C157.99750123 34.4667375 157.98767001 40.14012988 157.97662354 45.8135376 C157.96641179 51.59793758 157.9618304 57.38234166 157.95678711 63.16674805 C157.94604784 74.5254832 157.92897009 85.88419945 157.90795898 97.24291992 C157.03957586 97.24623007 156.17119274 97.24954021 155.27649498 97.25295067 C134.09975218 97.33434164 112.92307964 97.42648623 91.74643517 97.53044701 C81.50536959 97.58046612 71.2643116 97.62690986 61.02319336 97.66479492 C52.09203068 97.69784328 43.16092872 97.73774446 34.22983325 97.78570998 C29.50545265 97.81084788 24.78111166 97.83266594 20.05668259 97.84626389 C15.59975526 97.85920053 11.14296468 97.8813769 6.68611336 97.91030312 C5.06010108 97.91928907 3.43406685 97.9250478 1.80803108 97.92713356 C-10.8370114 97.94623965 -23.27388471 98.67590003 -35.46704102 102.36791992 C-36.17127197 102.58037354 -36.87550293 102.79282715 -37.60107422 103.01171875 C-64.94499359 111.7016657 -85.69065158 130.47437934 -98.88427734 155.65844727 C-111.80148763 181.19136389 -113.44562606 210.8864674 -104.62719727 238.01245117 C-95.16947785 265.09054317 -75.90278196 285.85889828 -50.31787109 298.49243164 C-31.73466925 307.20752618 -12.44917995 308.52665194 7.74780273 308.65698242 C9.60967318 308.67574108 11.47153555 308.69531778 13.33338928 308.71566772 C18.18125595 308.76649958 23.02915003 308.80638376 27.87713623 308.84381104 C33.72204126 308.89128369 39.56681552 308.95266712 45.41161346 309.01165771 C54.24367441 309.09927144 63.07571796 309.16946289 71.90795898 309.24291992 C71.90795898 287.46291992 71.90795898 265.68291992 71.90795898 243.24291992 C58.49848633 243.26032227 58.49848633 243.26032227 44.81811523 243.27807617 C38.45413652 243.28383154 32.09015974 243.28895847 25.72618008 243.29317379 C17.47141893 243.29872567 9.21666782 243.30578552 0.96191406 243.31835938 C-5.57134605 243.32830629 -12.1045986 243.33477337 -18.63786608 243.33700842 C-22.09925908 243.33831551 -25.56063044 243.34140128 -29.02201653 243.34864998 C-32.87991628 243.35666399 -36.73779458 243.35691106 -40.59570312 243.35644531 C-41.75159943 243.36004059 -42.90749573 243.36363586 -44.09841919 243.36734009 C-45.14314896 243.36596542 -46.18787872 243.36459076 -47.26426697 243.36317444 C-48.63451224 243.36455713 -48.63451224 243.36455713 -50.03243923 243.36596775 C-52.09204102 243.24291992 -52.09204102 243.24291992 -53.09204102 242.24291992 C-53.19247373 239.60091931 -53.22820951 236.98503402 -53.22143555 234.3425293 C-53.22406403 233.10113945 -53.22406403 233.10113945 -53.22674561 231.83467102 C-53.23116495 229.0853163 -53.22822585 226.33602535 -53.22485352 223.58666992 C-53.22552653 221.68477364 -53.22649654 219.78287743 -53.22775269 217.88098145 C-53.22922977 213.88947737 -53.22707476 209.89799563 -53.22241211 205.90649414 C-53.21671482 200.77801486 -53.21999377 195.6495879 -53.22598457 190.52111053 C-53.2295899 186.59217939 -53.22845173 182.66326074 -53.22585678 178.73432922 C-53.22518743 176.84279881 -53.2260162 174.95126727 -53.22833633 173.05973816 C-53.2308624 170.42089816 -53.22702293 167.78214411 -53.22143555 165.14331055 C-53.22345978 164.35366409 -53.22548401 163.56401764 -53.22756958 162.7504425 C-53.20630353 157.35718244 -53.20630353 157.35718244 -52.09204102 156.24291992 C-49.38841083 156.14285002 -46.71025597 156.10852118 -44.00610352 156.11593628 C-43.14840866 156.11437629 -42.29071381 156.1128163 -41.4070282 156.11120903 C-38.51034873 156.10719528 -35.61372095 156.11039012 -32.71704102 156.11352539 C-30.64957651 156.11217152 -28.58211224 156.11039166 -26.51464844 156.10821533 C-20.88258274 156.10363935 -15.25053527 156.10543123 -9.61846924 156.10859442 C-3.73856556 156.11111717 2.1413365 156.10878072 8.02124023 156.10720825 C17.89754518 156.10538631 27.77384267 156.10779351 37.65014648 156.11254883 C49.08644713 156.11799149 60.52272994 156.11622885 71.95903015 156.11072242 C81.75856174 156.106192 91.55808794 156.1055404 101.35762024 156.10816109 C107.2189666 156.10972426 113.08030456 156.10991656 118.94165039 156.1066246 C124.45072265 156.10374691 129.95977181 156.1057197 135.46884155 156.11151886 C137.49701906 156.11284701 139.52519849 156.11245142 141.55337524 156.1102562 C144.30961737 156.10754682 147.06578423 156.11092319 149.82202148 156.11593628 C150.63552567 156.11370556 151.44902985 156.11147484 152.28718567 156.10917652 C157.79380915 156.12877009 157.79380915 156.12877009 158.90795898 157.24291992 C159.00427058 158.57733536 159.03167878 159.91680663 159.03100681 161.25469303 C159.03299786 162.12404958 159.03498891 162.99340613 159.03704029 163.88910681 C159.03412745 164.85504009 159.03121461 165.82097338 159.0282135 166.81617737 C159.02949514 168.34266581 159.02949514 168.34266581 159.03080267 169.89999241 C159.03246053 173.33796812 159.02693111 176.77589591 159.02148438 180.21386719 C159.02120254 182.66718545 159.02136016 185.1205038 159.02192688 187.57382202 C159.0221552 192.87003264 159.0193038 198.1662281 159.01368904 203.46243477 C159.00557622 211.11994286 159.00295905 218.77744498 159.00170105 226.4349569 C158.99951019 238.85752021 158.99284917 251.28007697 158.98339844 263.70263672 C158.97422521 275.77294888 158.96714394 287.84325927 158.96289062 299.91357422 C158.96249654 301.02882298 158.96249654 301.02882298 158.96209449 302.16660202 C158.96078949 305.89636512 158.95952578 309.62612823 158.95828259 313.35589135 C158.94790891 344.31823897 158.93021555 375.28057845 158.90795898 406.24291992 C136.24454519 406.31333201 113.58114971 406.36606458 90.91764832 406.39835644 C80.39208293 406.4137557 69.86658592 406.43471065 59.34106445 406.46923828 C50.15568109 406.49935512 40.9703473 406.51854519 31.78491592 406.52518541 C26.93160098 406.52906035 22.07842773 406.53801786 17.22515869 406.56011009 C-31.12148534 406.77161018 -31.12148534 406.77161018 -54.59204102 400.43041992 C-55.58502197 400.17035156 -56.57800293 399.9102832 -57.60107422 399.64233398 C-66.0067968 397.38190287 -74.11316994 394.72088937 -82.09204102 391.24291992 C-82.88642578 390.89777344 -83.68081055 390.55262695 -84.49926758 390.19702148 C-112.60505656 377.79458096 -139.71351078 359.43385678 -159.09204102 335.24291992 C-159.68831299 334.51516357 -159.68831299 334.51516357 -160.29663086 333.77270508 C-190.8058683 296.49600453 -207.63688204 251.26431811 -207.40454102 203.05541992 C-207.40238586 202.24554626 -207.40023071 201.43567261 -207.39801025 200.60125732 C-207.34412109 187.9447809 -206.82949605 175.64386179 -204.09204102 163.24291992 C-203.89336426 162.33509766 -203.6946875 161.42727539 -203.48999023 160.49194336 C-198.80915249 139.79808241 -191.5086829 120.70038832 -181.09204102 102.24291992 C-180.07118721 100.38876453 -179.05034949 98.53460028 -178.02954102 96.68041992 C-177.39016602 95.54604492 -176.75079102 94.41166992 -176.09204102 93.24291992 C-175.43204102 93.24291992 -174.77204102 93.24291992 -174.09204102 93.24291992 C-174.09204102 92.25291992 -174.09204102 91.26291992 -174.09204102 90.24291992 C-173.43204102 90.24291992 -172.77204102 90.24291992 -172.09204102 90.24291992 C-172.09204102 89.25291992 -172.09204102 88.26291992 -172.09204102 87.24291992 C-171.43204102 87.24291992 -170.77204102 87.24291992 -170.09204102 87.24291992 C-169.59704102 85.26291992 -169.59704102 85.26291992 -169.09204102 83.24291992 C-168.43204102 83.24291992 -167.77204102 83.24291992 -167.09204102 83.24291992 C-166.59704102 81.26291992 -166.59704102 81.26291992 -166.09204102 79.24291992 C-165.43204102 79.24291992 -164.77204102 79.24291992 -164.09204102 79.24291992 C-163.43204102 77.59291992 -162.77204102 75.94291992 -162.09204102 74.24291992 C-161.43204102 74.24291992 -160.77204102 74.24291992 -160.09204102 74.24291992 C-159.81360352 73.19104492 -159.81360352 73.19104492 -159.52954102 72.11791992 C-157.82437672 68.70759134 -155.81672714 67.1428994 -152.89282227 64.78198242 C-151.20873648 63.34265531 -149.85581007 61.89984828 -148.46704102 60.18041992 C-144.50353659 55.27819076 -140.05651135 51.10417463 -135.09204102 47.24291992 C-134.43204102 47.24291992 -133.77204102 47.24291992 -133.09204102 47.24291992 C-132.76204102 46.25291992 -132.43204102 45.26291992 -132.09204102 44.24291992 C-130.02954102 43.55541992 -130.02954102 43.55541992 -128.09204102 43.24291992 C-128.09204102 42.58291992 -128.09204102 41.92291992 -128.09204102 41.24291992 C-126.77204102 40.91291992 -125.45204102 40.58291992 -124.09204102 40.24291992 C-124.09204102 39.58291992 -124.09204102 38.92291992 -124.09204102 38.24291992 C-120.63386608 35.61381068 -116.81038362 33.4850517 -113.09204102 31.24291992 C-112.11195068 30.64519775 -112.11195068 30.64519775 -111.11206055 30.03540039 C-91.01795631 17.80523265 -70.24359305 9.46511668 -47.21704102 4.36791992 C-46.3644873 4.17705811 -45.51193359 3.98619629 -44.63354492 3.78955078 C-29.86208642 0.723855 -15.03573231 -0.05562349 0 0 Z " fill="#BDA76F" transform="translate(751.092041015625,45.757080078125)"/>
<path d="M0 0 C14.26494294 -0.23438965 28.52958412 -0.40965757 42.79606247 -0.51812172 C49.42152686 -0.57019414 56.04569292 -0.64076302 62.67041016 -0.75439453 C69.07015895 -0.86347363 75.46866331 -0.92293091 81.86927032 -0.94877243 C84.30454335 -0.96717474 86.73975228 -1.00311178 89.17449188 -1.05730057 C111.24752628 -1.52879422 111.24752628 -1.52879422 118.35913086 4.87597656 C119.94665253 6.54634768 121.5008139 8.24991264 123 10 C124.20718091 11.02163593 125.43941781 12.01532558 126.70703125 12.9609375 C132.67262698 17.59834399 138.60707296 22.27057175 144.5 27 C149.28937095 30.84272089 154.09998465 34.65559248 158.9375 38.4375 C164.02908557 42.41929766 169.05692235 46.47320971 174.0625 50.5625 C179.83569058 55.27788064 185.68770479 59.85729888 191.6171875 64.375 C196.39639918 68.05087348 201.04935689 71.8854139 205.70898438 75.7109375 C206.35416016 76.23945312 206.99933594 76.76796875 207.6640625 77.3125 C208.23592285 77.78300781 208.8077832 78.25351563 209.39697266 78.73828125 C213.63269149 82.07215193 216.75304667 82.50117098 222 82 C224.87958556 81.33521435 224.87958556 81.33521435 227 80 C227.33 79.01 227.66 78.02 228 77 C230.0625 76.3125 230.0625 76.3125 232 76 C232 75.34 232 74.68 232 74 C234.475 73.01 234.475 73.01 237 72 C237 71.34 237 70.68 237 70 C237.639375 69.896875 238.27875 69.79375 238.9375 69.6875 C239.618125 69.460625 240.29875 69.23375 241 69 C241.33 68.01 241.66 67.02 242 66 C243.33333333 65.66666667 244.66666667 65.33333333 246 65 C246.33 64.01 246.66 63.02 247 62 C248.33333333 61.66666667 249.66666667 61.33333333 251 61 C251.33 60.01 251.66 59.02 252 58 C253.33333333 57.66666667 254.66666667 57.33333333 256 57 C256.33 56.01 256.66 55.02 257 54 C258.33333333 53.66666667 259.66666667 53.33333333 261 53 C261.33 52.01 261.66 51.02 262 50 C264.0625 49.3125 264.0625 49.3125 266 49 C266 48.34 266 47.68 266 47 C267.65 46.34 269.3 45.68 271 45 C271 44.34 271 43.68 271 43 C271.639375 42.896875 272.27875 42.79375 272.9375 42.6875 C273.618125 42.460625 274.29875 42.23375 275 42 C275.33 41.01 275.66 40.02 276 39 C277.33333333 38.66666667 278.66666667 38.33333333 280 38 C280.33 37.01 280.66 36.02 281 35 C282.33333333 34.66666667 283.66666667 34.33333333 285 34 C285.33 33.01 285.66 32.02 286 31 C287.33333333 30.66666667 288.66666667 30.33333333 290 30 C290.33 29.01 290.66 28.02 291 27 C292.33333333 26.66666667 293.66666667 26.33333333 295 26 C295.33 25.01 295.66 24.02 296 23 C298.0625 22.3125 298.0625 22.3125 300 22 C300 21.34 300 20.68 300 20 C301.65 19.34 303.3 18.68 305 18 C305 17.34 305 16.68 305 16 C305.639375 15.896875 306.27875 15.79375 306.9375 15.6875 C307.618125 15.460625 308.29875 15.23375 309 15 C309.33 14.01 309.66 13.02 310 12 C311.33333333 11.66666667 312.66666667 11.33333333 314 11 C314.33 10.01 314.66 9.02 315 8 C316.33333333 7.66666667 317.66666667 7.33333333 319 7 C319.33 6.01 319.66 5.02 320 4 C322.0625 3.3125 322.0625 3.3125 324 3 C324 2.34 324 1.68 324 1 C326.36648883 -0.18324441 327.7773132 -0.12326046 330.41653442 -0.12025452 C331.3448407 -0.12162918 332.27314697 -0.12300385 333.22958374 -0.12442017 C334.25097443 -0.12082489 335.27236511 -0.11722961 336.32470703 -0.11352539 C337.39789185 -0.11367142 338.47107666 -0.11381744 339.57678223 -0.1139679 C343.13714595 -0.11326917 346.69745787 -0.10547861 350.2578125 -0.09765625 C352.72118094 -0.09579193 355.18454976 -0.09436809 357.6479187 -0.09336853 C364.14167295 -0.08954446 370.63540495 -0.07971511 377.12915039 -0.06866455 C383.75146178 -0.05844806 390.37377676 -0.0538704 396.99609375 -0.04882812 C409.99740534 -0.03809276 422.99870149 -0.021209 436 0 C436 4 436 4 434.26953125 5.9375 C433.45871094 6.618125 432.64789063 7.29875 431.8125 8 C430.44158203 9.17949219 430.44158203 9.17949219 429.04296875 10.3828125 C428.54845215 10.8046582 428.05393555 11.22650391 427.54443359 11.66113281 C424.84524546 14.00105499 422.24042496 16.44236514 419.625 18.875 C418.51464398 19.90269075 417.40396566 20.93003338 416.29296875 21.95703125 C415.46998291 22.71814209 415.46998291 22.71814209 414.63037109 23.49462891 C410.59293686 27.22251443 406.53690415 30.93019029 402.48388672 34.64111328 C399.98835593 36.92642496 397.49425473 39.2132958 395 41.5 C394.00000675 42.41667404 393.00000676 43.3333407 392 44.25 C391.2575 44.930625 391.2575 44.930625 390.5 45.625 C338 93.75 338 93.75 336.50024414 95.12475586 C335.49940332 96.04220685 334.49858955 96.95968736 333.49780273 97.87719727 C331.01088739 100.15710551 328.52351685 102.43651293 326.03515625 104.71484375 C320.84702953 109.46607559 315.66726439 114.22608074 310.5 119 C305.33948943 123.76767956 300.16698021 128.52197659 294.984375 133.265625 C292.92886855 135.14735019 290.87728282 137.03323873 288.828125 138.921875 C288.30226807 139.4058374 287.77641113 139.8897998 287.23461914 140.38842773 C285.78465374 141.72307318 284.3356515 143.0587648 282.88671875 144.39453125 C280 147 280 147 278.21777242 148.20390332 C275.39128468 150.21816457 273.35104458 151.80494833 272.35078824 155.21009421 C272.10030588 157.93707106 272.07353115 160.58812772 272.12025452 163.3263855 C272.11018999 164.36465079 272.10012546 165.40291609 272.08975595 166.47264397 C272.06451758 169.95107376 272.08914065 173.42735219 272.11352539 176.90576172 C272.10563759 179.39923715 272.0946774 181.89270449 272.08087158 184.38615417 C272.05806638 189.75397744 272.05663404 195.12115447 272.07469368 200.48894882 C272.10076726 208.24970032 272.08821635 216.01001326 272.06630235 223.77076007 C272.03179304 236.36252729 272.02842867 248.95410195 272.04467773 261.54589844 C272.0603934 273.77609031 272.06142405 286.00613835 272.04272461 298.23632812 C272.04157668 298.99046167 272.04042875 299.74459521 272.03924603 300.52158128 C272.03339654 304.30492791 272.02725856 308.088274 272.02097714 311.87161994 C271.96925697 343.24779936 271.96861279 374.6237884 272 406 C257.93582343 406.02333039 243.87164985 406.04091345 229.80745792 406.05181217 C223.27763767 406.0570417 216.74783037 406.06414061 210.21801758 406.07543945 C203.92218841 406.08626585 197.62637174 406.09227631 191.33053398 406.09487724 C188.92265056 406.09673194 186.51476786 406.1003534 184.10688972 406.10573006 C180.74710714 406.1129372 177.3873769 406.11399108 174.02758789 406.11352539 C173.02130341 406.11712067 172.01501892 406.12071594 170.97824097 406.12442017 C169.61308601 406.12235817 169.61308601 406.12235817 168.22035217 406.12025452 C167.42484483 406.12117631 166.62933748 406.1220981 165.80972385 406.12304783 C164 406 164 406 163 405 C162.90757023 403.64774583 162.88438161 402.29068043 162.88926792 400.93527985 C162.88996047 400.05405661 162.89065301 399.17283338 162.89136654 398.26490641 C162.89720963 397.28565746 162.90305272 396.30640851 162.90907288 395.29748535 C162.91119056 394.26575872 162.91330824 393.23403209 162.91549009 392.17104101 C162.92360137 388.68496314 162.93863405 385.19894631 162.95336914 381.71289062 C162.96015399 379.22491601 162.96636635 376.73693978 162.9720459 374.2489624 C162.98130241 370.26560166 162.99082809 366.2822441 163.00262368 362.29889011 C163.03162014 352.41290953 163.04317494 342.52701249 163.04405212 332.64099121 C163.04419269 331.56936264 163.04419269 331.56936264 163.04433609 330.47608501 C163.0450582 324.59020829 163.04506124 318.70433161 163.044836 312.81845486 C163.04467475 307.51178215 163.04518693 302.20511003 163.04663086 296.8984375 C163.04682885 296.14174764 163.04702684 295.38505779 163.04723083 294.60543793 C163.05142491 282.3573843 163.08795477 270.10961836 163.13558704 257.86166602 C163.18365747 245.28784328 163.19363815 232.71438904 163.16924757 220.14049673 C163.15546652 212.38507118 163.1717272 204.63090069 163.22671574 196.87565273 C163.26579772 190.92538748 163.25221498 184.97596769 163.21918488 179.0256424 C163.21391694 176.587985 163.22572546 174.1502211 163.25597191 171.71274567 C164.07458012 159.03947421 164.07458012 159.03947421 159.81228447 147.61585999 C157.31009253 145.3328813 154.92888914 143.67692657 152 142 C150.83856082 140.9930372 149.69776742 139.96042551 148.6015625 138.8828125 C148.10889893 138.42688721 147.61623535 137.97096191 147.10864258 137.5012207 C146.61904053 137.04706787 146.12943848 136.59291504 145.625 136.125 C144.51707146 135.10010432 143.40899508 134.07536844 142.30078125 133.05078125 C141.47827881 132.29015381 141.47827881 132.29015381 140.63916016 131.51416016 C134.48123523 125.82582974 128.3037045 120.15945113 122.0625 114.5625 C117.09487617 110.10356085 112.19316748 105.57561669 107.29296875 101.04296875 C104.18217159 98.16605238 101.06201655 95.29950383 97.9375 92.4375 C97.44652832 91.98777832 96.95555664 91.53805664 96.44970703 91.07470703 C95.46115485 90.16937398 94.47254823 89.26410037 93.48388672 88.35888672 C90.98835593 86.07357504 88.49425473 83.7867042 86 81.5 C85.00000675 80.58332596 84.00000676 79.6666593 83 78.75 C29 29.25 29 29.25 27.49902344 27.87402344 C26.50238681 26.96049397 25.50564259 26.04708185 24.50878906 25.13378906 C21.95641939 22.79509062 19.4061452 20.45417086 16.859375 18.109375 C16.3427832 17.63435547 15.82619141 17.15933594 15.29394531 16.66992188 C14.27689254 15.73456783 13.26059684 14.79838981 12.24511719 13.86132812 C8.70004231 10.60241339 5.06421521 7.47497172 1.328125 4.4375 C0 3 0 3 0 0 Z " fill="#81A8D7" transform="translate(44,46)"/>
<path d="M0 0 C1.0697683 -0.00021904 1.0697683 -0.00021904 2.16114807 -0.0004425 C4.48767276 0.00024686 6.81411453 0.00799286 9.140625 0.01586914 C10.7658687 0.0177368 12.39111296 0.01915906 14.01635742 0.02015686 C18.27091049 0.02395466 22.52542882 0.03376126 26.77996826 0.04486084 C31.89708234 0.0569439 37.0142081 0.06149024 42.1313324 0.06731415 C49.88445401 0.07697474 57.63749956 0.09615036 65.390625 0.11352539 C65.390625 21.89352539 65.390625 43.67352539 65.390625 66.11352539 C35.265625 66.48852539 35.265625 66.48852539 25.84326172 66.59155273 C23.33560185 66.62680954 20.82795127 66.66273629 18.3203125 66.69946289 C16.41971069 66.71650269 16.41971069 66.71650269 14.48071289 66.73388672 C-8.68537532 67.10358203 -29.51835119 72.70715683 -46.609375 89.11352539 C-55.6740242 99.06147107 -62.96473186 112.58046184 -64.609375 126.11352539 C-64.74085938 127.08290039 -64.87234375 128.05227539 -65.0078125 129.05102539 C-67.07541084 148.16482334 -61.45141274 166.30510961 -49.484375 181.30102539 C-32.43660017 199.60455149 -5.37009177 206.48045468 18.79052734 207.43164062 C25.69794078 207.62300349 32.6059849 207.68691098 39.515625 207.73852539 C43.08689352 207.77506995 46.6580538 207.81552497 50.22921753 207.86117554 C52.43156469 207.88834622 54.63399257 207.90972167 56.8364563 207.92471313 C57.81613373 207.93497528 58.79581116 207.94523743 59.80517578 207.95581055 C60.66942169 207.96230621 61.5336676 207.96880188 62.42410278 207.97549438 C64.390625 208.11352539 64.390625 208.11352539 65.390625 209.11352539 C65.48476187 211.169092 65.50805498 213.2279272 65.50415039 215.28564453 C65.50429642 215.92952621 65.50444244 216.5734079 65.5045929 217.23680115 C65.50389385 219.37412842 65.49610191 221.51136952 65.48828125 223.64868164 C65.48641704 225.12698824 65.48499315 226.60529546 65.48399353 228.08360291 C65.48016859 231.98151341 65.47033852 235.87938688 65.45928955 239.77728271 C65.44907492 243.75198872 65.4444958 247.72670068 65.43945312 251.70141602 C65.42871622 259.50546939 65.41164009 267.30949221 65.390625 275.11352539 C6.77451955 275.77369197 -51.76142185 274.4689214 -96.5078125 231.24633789 C-121.33050498 206.5475266 -135.25776765 172.60358418 -135.62792969 137.63012695 C-135.4343252 111.37124458 -128.3459936 85.89016228 -113.609375 64.11352539 C-113.08859375 63.18926758 -112.5678125 62.26500977 -112.03125 61.31274414 C-111.56203125 60.58700195 -111.0928125 59.86125977 -110.609375 59.11352539 C-109.949375 59.11352539 -109.289375 59.11352539 -108.609375 59.11352539 C-108.279375 57.79352539 -107.949375 56.47352539 -107.609375 55.11352539 C-106.949375 55.11352539 -106.289375 55.11352539 -105.609375 55.11352539 C-105.2690625 54.03071289 -105.2690625 54.03071289 -104.921875 52.92602539 C-103.34532414 49.54770212 -101.29950925 47.67555801 -98.609375 45.11352539 C-97.990625 44.28852539 -97.371875 43.46352539 -96.734375 42.61352539 C-94.46833272 39.9475933 -92.16059171 38.2623412 -89.28515625 36.31665039 C-87.40972933 35.03876254 -87.40972933 35.03876254 -85.296875 32.80102539 C-84.74 32.24415039 -84.183125 31.68727539 -83.609375 31.11352539 C-82.949375 31.11352539 -82.289375 31.11352539 -81.609375 31.11352539 C-81.114375 29.62852539 -81.114375 29.62852539 -80.609375 28.11352539 C-79.619375 28.11352539 -78.629375 28.11352539 -77.609375 28.11352539 C-77.609375 27.45352539 -77.609375 26.79352539 -77.609375 26.11352539 C-73.03510466 22.46427416 -67.89295975 19.59357538 -62.609375 17.11352539 C-61.92875 16.75774414 -61.248125 16.40196289 -60.546875 16.03540039 C-41.89161481 6.33957437 -21.17136495 -0.03675584 0 0 Z " fill="#80A7D5" transform="translate(462.609375,176.886474609375)"/>
<path d="M0 0 C0.33 0.66 0.66 1.32 1 2 C-7.33333333 10.33333333 -15.66666667 18.66666667 -24 27 C-24.66 26.67 -25.32 26.34 -26 26 C-20.36606112 19.28926735 -14.23125838 13.14854256 -8 7 C-7.12601563 6.10667969 -6.25203125 5.21335937 -5.3515625 4.29296875 C-3 2 -3 2 0 0 Z " fill="#A68D3B" transform="translate(991,99)"/>
<path d="M0 0 C0.66 0 1.32 0 2 0 C0.58460683 3.20991748 -1.11962032 5.37654845 -3.58984375 7.85546875 C-4.29173828 8.55994141 -4.99363281 9.26441406 -5.71679688 9.99023438 C-6.44962891 10.71533203 -7.18246094 11.44042969 -7.9375 12.1875 C-9.03094727 13.29254883 -9.03094727 13.29254883 -10.14648438 14.41992188 C-10.84966797 15.12052734 -11.55285156 15.82113281 -12.27734375 16.54296875 C-12.91921631 17.18258545 -13.56108887 17.82220215 -14.22241211 18.48120117 C-16 20 -16 20 -19 21 C-17.75304528 17.25913583 -15.80733432 15.74204747 -13 13 C-12.38125 12.175 -11.7625 11.35 -11.125 10.5 C-8.84374329 7.81616858 -6.51755035 6.11840612 -3.5859375 4.2109375 C-1.7068569 2.91202766 -1.7068569 2.91202766 0 0 Z " fill="#557794" transform="translate(377,209)"/>
<path d="M0 0 C0.66 0.33 1.32 0.66 2 1 C-1.96 4.96 -5.92 8.92 -10 13 C-10 8.41771462 -7.08388033 6.1816619 -4 3 C-1.625 1.0625 -1.625 1.0625 0 0 Z " fill="#789FD2" transform="translate(609,100)"/>
</svg>
