<svg width="127" height="127" viewBox="0 0 127 127" fill="none" xmlns="http://www.w3.org/2000/svg">
<path d="M63.5 0C98.5701 0 127 28.4299 127 63.5C127 98.5701 98.5701 127 63.5 127C28.4299 127 0 98.5701 0 63.5C0 28.4299 28.4299 0 63.5 0ZM65.0752 20.416C63.7954 19.7549 62.2377 19.7087 60.8848 20.3906L60.5986 20.5479C55.5804 23.5357 43.1166 29.8637 30.5361 33.0889L29.3193 33.3906C27.2519 33.8867 25.7805 35.7368 25.7803 37.8789V61.751L25.791 61.9023C26.6639 73.6361 34.9157 99.3044 61.6709 106.985L61.9932 107.065C62.7571 107.226 63.5984 107.202 64.4277 106.919L64.9805 106.726C70.7639 104.65 78.975 100.189 86.1367 93.1133C93.5758 85.7637 100.022 75.4432 101.205 61.9561L101.221 61.7783V37.8896C101.22 35.8157 99.8319 33.9685 97.791 33.4287L97.5918 33.3799C91.7769 32.1114 78.1884 28.0622 66.4727 21.2363L65.3447 20.5674L65.0752 20.416ZM62.9355 28.5918C73.8663 34.8566 86.0008 38.8442 93.0791 40.668V61.3984C92.0667 72.4641 86.788 81.025 80.415 87.3213C74.4234 93.2408 67.5864 97.0275 62.8428 98.835C41.724 92.157 34.7108 71.4192 33.9209 61.4268V40.6133C45.6803 37.4089 56.9591 31.9356 62.9355 28.5918ZM63.0186 40.7148C59.2674 41.0063 56.675 42.6789 55.0264 44.7373C53.5319 46.6034 52.856 48.7255 52.6797 50.2988L52.6514 50.6055L52.6455 50.6855V56.4443C49.9479 56.4443 47.7609 58.6315 47.7607 61.3291V75.4404C47.7609 78.138 49.9479 80.3242 52.6455 80.3242H74.3545C77.052 80.3242 79.2391 78.1379 79.2393 75.4404V61.3291C79.2391 58.6315 77.0521 56.4444 74.3545 56.4443H73.2695V50.7266L73.2676 50.6855C73.1328 47.062 71.4443 44.5611 69.3662 42.9902C67.4917 41.5733 65.3385 40.9303 63.7568 40.7461L63.4482 40.7158L63.2256 40.707L63.0186 40.7148ZM65.3994 63.7715C65.7614 63.8619 67.8413 63.7716 67.5703 65.3994C67.5257 65.6671 67.2991 66.4853 65.9424 66.4854V72.1836C66.0328 72.455 65.7251 72.998 63.7715 72.998C62.8669 72.998 61.0576 72.8349 61.0576 72.1836V66.4854C60.5149 66.4853 59.701 66.2135 59.4297 65.3994C59.4297 65.0373 59.43 64.0428 61.0576 63.7715H65.3994ZM63.2148 45.0576C64.162 45.1601 65.5766 45.5677 66.748 46.4531C67.8914 47.3174 68.8423 48.6502 68.9277 50.8311V56.4443H56.9873V50.876C57.0612 50.0365 57.4548 48.6502 58.415 47.4512C59.3235 46.317 60.7882 45.2805 63.2148 45.0576Z" fill="url(#paint0_linear_129_232)"/>
<defs>
<linearGradient id="paint0_linear_129_232" x1="38.5342" y1="63.5" x2="89.5513" y2="63.5" gradientUnits="userSpaceOnUse">
<stop stop-color="#84ABDB"/>
<stop offset="1" stop-color="#E5BE5F"/>
</linearGradient>
</defs>
</svg>
