<svg width="137" height="104" viewBox="0 0 137 104" fill="none" xmlns="http://www.w3.org/2000/svg">
<path fill-rule="evenodd" clip-rule="evenodd" d="M93.8889 0C117.422 9.30598e-08 136.5 19.0776 136.5 42.6111C136.5 66.1446 117.422 85.2222 93.8889 85.2222H42.6111C19.0776 85.2222 0 66.1446 0 42.6111C0 19.0776 19.0776 9.30598e-08 42.6111 0H93.8889ZM40.7357 35.8833C36.3941 35.8833 32.8745 39.5648 32.8745 44.1063C32.8746 48.6478 36.3941 52.3294 40.7357 52.3294C45.0773 52.3293 48.5969 48.6478 48.597 44.1063C48.597 39.5648 45.0773 35.8834 40.7357 35.8833ZM66.4635 35.8833C62.1218 35.8833 58.6023 39.5648 58.6023 44.1063C58.6023 48.6478 62.1219 52.3294 66.4635 52.3294C70.805 52.3293 74.3247 48.6478 74.3247 44.1063C74.3247 39.5648 70.8051 35.8834 66.4635 35.8833ZM92.1912 35.8833C87.8496 35.8833 84.33 39.5648 84.33 44.1063C84.3301 48.6478 87.8496 52.3294 92.1912 52.3294C96.5328 52.3293 100.052 48.6478 100.052 44.1063C100.052 39.5648 96.5328 35.8834 92.1912 35.8833Z" fill="url(#paint0_linear_129_215)"/>
<path d="M27.8625 104C33.2176 104 43.3064 93.4637 51.3398 85.8696C52.7399 84.546 52.5276 82.2396 50.8894 81.2254L39.7913 74.355C39.6012 74.2374 39.4017 74.1428 39.189 74.0739C33.4923 72.227 22.7803 70.2302 23.119 76.339C23.5502 84.1187 24.4128 104 27.8625 104Z" fill="url(#paint1_linear_129_215)"/>
<defs>
<linearGradient id="paint0_linear_129_215" x1="136.5" y1="45.0956" x2="6.65595e-06" y2="58.9044" gradientUnits="userSpaceOnUse">
<stop offset="0.162132" stop-color="#E3BB5C"/>
<stop offset="0.568822" stop-color="#84ABDB"/>
</linearGradient>
<linearGradient id="paint1_linear_129_215" x1="136.5" y1="45.0956" x2="6.65595e-06" y2="58.9044" gradientUnits="userSpaceOnUse">
<stop offset="0.162132" stop-color="#E3BB5C"/>
<stop offset="0.568822" stop-color="#84ABDB"/>
</linearGradient>
</defs>
</svg>
