<svg width="113" height="102" viewBox="0 0 113 102" fill="none" xmlns="http://www.w3.org/2000/svg">
<path d="M50.3024 2.33294C54.2615 2.24121 58.1257 2.58754 61.846 3.32574C64.0707 3.76718 65.3028 6.08861 64.6044 8.24647L51.4579 48.8642C50.7565 51.0314 52.0038 53.346 54.1996 53.9519L96.415 65.6C98.6057 66.2045 99.8674 68.5189 98.9914 70.616C91.5388 88.4574 73.7044 101.237 52.6054 101.726C24.2965 102.382 0.832045 80.6639 0.196093 53.2172C-0.439859 25.7705 21.9935 2.98887 50.3024 2.33294Z" fill="url(#paint0_linear_129_200)"/>
<path d="M64.1018 48.6042C61.9106 47.978 60.6846 45.6504 61.4076 43.4892L74.791 3.48119C75.4756 1.43496 77.6702 0.288678 79.6994 1.02235C111.306 12.4505 114.245 41.3465 111.201 57.8774C110.798 60.0664 108.561 61.3099 106.421 60.6983L64.1018 48.6042Z" fill="url(#paint1_linear_129_200)"/>
<defs>
<linearGradient id="paint0_linear_129_200" x1="0.110758" y1="49.5344" x2="72.5053" y2="50.6626" gradientUnits="userSpaceOnUse">
<stop offset="0.397394" stop-color="#84ABDB"/>
<stop offset="1" stop-color="#E5BE5F"/>
</linearGradient>
<linearGradient id="paint1_linear_129_200" x1="0.110758" y1="49.5344" x2="72.5053" y2="50.6626" gradientUnits="userSpaceOnUse">
<stop offset="0.397394" stop-color="#84ABDB"/>
<stop offset="1" stop-color="#E5BE5F"/>
</linearGradient>
</defs>
</svg>
